<svg width="165" height="25" viewBox="0 0 165 25" fill="none" xmlns="http://www.w3.org/2000/svg">
<path d="M0.5 21.9917C4.43158 21.9917 7.61873 18.8045 7.61873 14.8729C7.61873 10.9413 4.43158 7.75418 0.5 7.75418V12.7373C1.67946 12.7373 2.63561 13.6934 2.63561 14.8729C2.63561 16.0524 1.67946 17.0085 0.5 17.0085V21.9917Z" fill="#F57463"/>
<path d="M24.2291 10.1272C23.0126 9.74179 21.7172 9.53387 20.3731 9.53387C13.329 9.53387 7.61874 15.2443 7.61874 22.2883C7.61874 22.9953 7.67628 23.6889 7.78689 24.3646H15.7116C15.4287 23.7304 15.2714 23.0277 15.2714 22.2883C15.2714 19.4707 17.5555 17.1865 20.3731 17.1865C21.9131 17.1865 23.2937 17.8688 24.2291 18.9476V10.1272Z" fill="#F57463"/>
<path d="M1.75156 0.635437C2.34175 5.97443 6.86819 10.1271 12.3645 10.1271C17.8607 10.1271 22.3872 5.97443 22.9774 0.635437H15.341C14.8695 1.81728 13.7145 2.65241 12.3645 2.65241C11.0144 2.65241 9.85947 1.81728 9.38795 0.635437H1.75156Z" fill="#F57463"/>
<path d="M43.9027 5.3584C44.8563 5.3584 45.6659 5.4864 46.3315 5.7424C47.0035 5.992 47.6179 6.3472 48.1747 6.808L46.6291 8.6704C46.2643 8.3696 45.8611 8.1328 45.4195 7.96C44.9779 7.7808 44.4979 7.6912 43.9795 7.6912C43.4227 7.6912 42.9139 7.8512 42.4531 8.1712C41.9923 8.4848 41.6243 8.984 41.3491 9.6688C41.0739 10.3472 40.9363 11.2304 40.9363 12.3184C40.9363 13.3872 41.0675 14.2608 41.3299 14.9392C41.5987 15.6112 41.9667 16.1072 42.4339 16.4272C42.9011 16.7408 43.4355 16.8976 44.0371 16.8976C44.7027 16.8976 45.2563 16.7728 45.6979 16.5232C46.1395 16.2736 46.5459 16.0016 46.9171 15.7072L48.3475 17.5312C47.8483 18.024 47.2339 18.4464 46.5043 18.7984C45.7747 19.1504 44.8947 19.3264 43.8643 19.3264C42.6611 19.3264 41.5923 19.0608 40.6579 18.5296C39.7299 17.992 39.0003 17.2048 38.4691 16.168C37.9443 15.1248 37.6819 13.8416 37.6819 12.3184C37.6819 10.8336 37.9539 9.5728 38.4979 8.536C39.0483 7.4992 39.7939 6.712 40.7347 6.1744C41.6755 5.6304 42.7315 5.3584 43.9027 5.3584ZM54.3016 8.4688C55.3512 8.4688 56.244 8.6928 56.98 9.1408C57.716 9.5888 58.2792 10.2192 58.6696 11.032C59.06 11.8384 59.2552 12.7856 59.2552 13.8736C59.2552 15.0064 59.0568 15.9824 58.66 16.8016C58.2696 17.6144 57.7064 18.2384 56.9704 18.6736C56.2344 19.1088 55.3448 19.3264 54.3016 19.3264C53.2648 19.3264 52.3752 19.112 51.6328 18.6832C50.8968 18.2544 50.3304 17.6336 49.9336 16.8208C49.5432 16.008 49.348 15.032 49.348 13.8928C49.348 12.8112 49.5432 11.864 49.9336 11.0512C50.3304 10.2384 50.8968 9.6048 51.6328 9.1504C52.3752 8.696 53.2648 8.4688 54.3016 8.4688ZM54.3016 10.7056C53.6808 10.7056 53.22 10.9616 52.9192 11.4736C52.6248 11.9792 52.4776 12.7856 52.4776 13.8928C52.4776 15.0192 52.6248 15.8352 52.9192 16.3408C53.22 16.8464 53.6808 17.0992 54.3016 17.0992C54.9224 17.0992 55.38 16.8464 55.6744 16.3408C55.9752 15.8352 56.1256 15.0128 56.1256 13.8736C56.1256 12.7728 55.9752 11.9696 55.6744 11.464C55.38 10.9584 54.9224 10.7056 54.3016 10.7056ZM67.1965 4.4368L70.2301 4.7536V19H67.5421L67.3885 17.8768C67.1069 18.2736 66.7325 18.616 66.2653 18.904C65.7981 19.1856 65.2317 19.3264 64.5661 19.3264C63.7213 19.3264 63.0205 19.0992 62.4637 18.6448C61.9133 18.1904 61.5005 17.5568 61.2253 16.744C60.9565 15.9248 60.8221 14.968 60.8221 13.8736C60.8221 12.824 60.9853 11.8928 61.3117 11.08C61.6381 10.2672 62.1053 9.6304 62.7133 9.1696C63.3213 8.7024 64.0445 8.4688 64.8829 8.4688C65.3373 8.4688 65.7597 8.5488 66.1501 8.7088C66.5405 8.8688 66.8893 9.1024 67.1965 9.4096V4.4368ZM65.6989 10.6864C65.1741 10.6864 64.7517 10.936 64.4317 11.4352C64.1117 11.928 63.9517 12.7472 63.9517 13.8928C63.9517 14.7312 64.0189 15.384 64.1533 15.8512C64.2877 16.312 64.4733 16.6352 64.7101 16.8208C64.9469 17.0064 65.2189 17.0992 65.5261 17.0992C65.8653 17.0992 66.1725 16.9936 66.4477 16.7824C66.7293 16.5712 66.9789 16.2832 67.1965 15.9184V11.5216C66.9853 11.2592 66.7613 11.0544 66.5245 10.9072C66.2877 10.76 66.0125 10.6864 65.6989 10.6864ZM79.141 8.8048V16.9264H81.733V19H73.2178V16.9264H76.1074V10.8784H73.3138V8.8048H79.141ZM77.3074 3.4672C77.8322 3.4672 78.261 3.6304 78.5938 3.9568C78.9266 4.2832 79.093 4.6896 79.093 5.176C79.093 5.6624 78.9266 6.072 78.5938 6.4048C78.261 6.7312 77.8322 6.8944 77.3074 6.8944C76.7762 6.8944 76.341 6.7312 76.0018 6.4048C75.669 6.072 75.5026 5.6624 75.5026 5.176C75.5026 4.6896 75.669 4.2832 76.0018 3.9568C76.341 3.6304 76.7762 3.4672 77.3074 3.4672ZM84.4231 19V8.8048H87.0727L87.2839 9.9856C87.7383 9.4736 88.2183 9.0928 88.7239 8.8432C89.2295 8.5936 89.8055 8.4688 90.4519 8.4688C91.3223 8.4688 92.0071 8.7344 92.5063 9.2656C93.0055 9.7968 93.2551 10.5456 93.2551 11.512V19H90.2215V12.3856C90.2215 11.9696 90.1927 11.64 90.1351 11.3968C90.0775 11.1472 89.9751 10.9712 89.8279 10.8688C89.6871 10.76 89.4919 10.7056 89.2423 10.7056C89.0311 10.7056 88.8231 10.7536 88.6183 10.8496C88.4199 10.9392 88.2247 11.0704 88.0327 11.2432C87.8407 11.416 87.6487 11.624 87.4567 11.8672V19H84.4231ZM104.988 7.1728L105.699 9.4C105.34 9.5408 104.921 9.6432 104.441 9.7072C103.961 9.7712 103.401 9.8032 102.761 9.8032C103.401 10.0784 103.888 10.4208 104.22 10.8304C104.56 11.2336 104.729 11.7648 104.729 12.424C104.729 13.0832 104.553 13.672 104.201 14.1904C103.849 14.7024 103.35 15.1056 102.704 15.4C102.057 15.6944 101.292 15.8416 100.409 15.8416C100.192 15.8416 99.9868 15.832 99.7948 15.8128C99.6028 15.7936 99.414 15.7648 99.2284 15.7264C99.1196 15.784 99.0364 15.8672 98.9788 15.976C98.9212 16.0848 98.8924 16.1968 98.8924 16.312C98.8924 16.472 98.9564 16.616 99.0844 16.744C99.2188 16.872 99.5292 16.936 100.016 16.936H101.686C102.48 16.936 103.164 17.064 103.74 17.32C104.323 17.576 104.774 17.9248 105.094 18.3664C105.414 18.808 105.574 19.3136 105.574 19.8832C105.574 20.9264 105.116 21.7488 104.201 22.3504C103.286 22.952 101.926 23.2528 100.121 23.2528C98.8156 23.2528 97.8044 23.1184 97.0876 22.8496C96.3772 22.5872 95.8812 22.2096 95.5996 21.7168C95.3244 21.2304 95.1868 20.6512 95.1868 19.9792H97.8748C97.8748 20.2736 97.9324 20.5136 98.0476 20.6992C98.1692 20.8912 98.3964 21.032 98.7292 21.1216C99.0684 21.2112 99.558 21.256 100.198 21.256C100.844 21.256 101.337 21.2048 101.676 21.1024C102.016 21 102.246 20.8592 102.368 20.68C102.496 20.5072 102.56 20.312 102.56 20.0944C102.56 19.7936 102.441 19.5504 102.204 19.3648C101.968 19.1792 101.593 19.0864 101.081 19.0864H99.4588C98.358 19.0864 97.558 18.8848 97.0588 18.4816C96.5596 18.072 96.31 17.5952 96.31 17.0512C96.31 16.6736 96.4092 16.3152 96.6076 15.976C96.8124 15.6368 97.0972 15.352 97.462 15.1216C96.8092 14.776 96.342 14.3696 96.0604 13.9024C95.7788 13.4288 95.638 12.8624 95.638 12.2032C95.638 11.4352 95.8332 10.776 96.2236 10.2256C96.614 9.6688 97.1516 9.24 97.8364 8.9392C98.5276 8.6384 99.3148 8.488 100.198 8.488C100.96 8.5008 101.622 8.4496 102.185 8.3344C102.748 8.2128 103.254 8.0496 103.702 7.8448C104.15 7.6336 104.579 7.4096 104.988 7.1728ZM100.275 10.456C99.7948 10.456 99.414 10.6096 99.1324 10.9168C98.8508 11.2176 98.71 11.6336 98.71 12.1648C98.71 12.728 98.854 13.16 99.142 13.4608C99.43 13.7616 99.8076 13.912 100.275 13.912C100.78 13.912 101.164 13.7616 101.427 13.4608C101.696 13.16 101.83 12.7152 101.83 12.1264C101.83 11.5568 101.699 11.1376 101.436 10.8688C101.174 10.5936 100.787 10.456 100.275 10.456ZM124.49 5.3584C125.444 5.3584 126.253 5.4864 126.919 5.7424C127.591 5.992 128.205 6.3472 128.762 6.808L127.217 8.6704C126.852 8.3696 126.449 8.1328 126.007 7.96C125.565 7.7808 125.085 7.6912 124.567 7.6912C124.01 7.6912 123.501 7.8512 123.041 8.1712C122.58 8.4848 122.212 8.984 121.937 9.6688C121.661 10.3472 121.524 11.2304 121.524 12.3184C121.524 13.3872 121.655 14.2608 121.917 14.9392C122.186 15.6112 122.554 16.1072 123.021 16.4272C123.489 16.7408 124.023 16.8976 124.625 16.8976C125.29 16.8976 125.844 16.7728 126.285 16.5232C126.727 16.2736 127.133 16.0016 127.505 15.7072L128.935 17.5312C128.436 18.024 127.821 18.4464 127.092 18.7984C126.362 19.1504 125.482 19.3264 124.452 19.3264C123.249 19.3264 122.18 19.0608 121.245 18.5296C120.317 17.992 119.588 17.2048 119.057 16.168C118.532 15.1248 118.269 13.8416 118.269 12.3184C118.269 10.8336 118.541 9.5728 119.085 8.536C119.636 7.4992 120.381 6.712 121.322 6.1744C122.263 5.6304 123.319 5.3584 124.49 5.3584ZM134.889 8.4688C135.939 8.4688 136.832 8.6928 137.568 9.1408C138.304 9.5888 138.867 10.2192 139.257 11.032C139.648 11.8384 139.843 12.7856 139.843 13.8736C139.843 15.0064 139.644 15.9824 139.248 16.8016C138.857 17.6144 138.294 18.2384 137.558 18.6736C136.822 19.1088 135.932 19.3264 134.889 19.3264C133.852 19.3264 132.963 19.112 132.22 18.6832C131.484 18.2544 130.918 17.6336 130.521 16.8208C130.131 16.008 129.936 15.032 129.936 13.8928C129.936 12.8112 130.131 11.864 130.521 11.0512C130.918 10.2384 131.484 9.6048 132.22 9.1504C132.963 8.696 133.852 8.4688 134.889 8.4688ZM134.889 10.7056C134.268 10.7056 133.808 10.9616 133.507 11.4736C133.212 11.9792 133.065 12.7856 133.065 13.8928C133.065 15.0192 133.212 15.8352 133.507 16.3408C133.808 16.8464 134.268 17.0992 134.889 17.0992C135.51 17.0992 135.968 16.8464 136.262 16.3408C136.563 15.8352 136.713 15.0128 136.713 13.8736C136.713 12.7728 136.563 11.9696 136.262 11.464C135.968 10.9584 135.51 10.7056 134.889 10.7056ZM141.986 19V8.8048H144.635L144.846 9.9856C145.301 9.4736 145.781 9.0928 146.286 8.8432C146.792 8.5936 147.368 8.4688 148.014 8.4688C148.885 8.4688 149.57 8.7344 150.069 9.2656C150.568 9.7968 150.818 10.5456 150.818 11.512V19H147.784V12.3856C147.784 11.9696 147.755 11.64 147.698 11.3968C147.64 11.1472 147.538 10.9712 147.39 10.8688C147.25 10.76 147.054 10.7056 146.805 10.7056C146.594 10.7056 146.386 10.7536 146.181 10.8496C145.982 10.9392 145.787 11.0704 145.595 11.2432C145.403 11.416 145.211 11.624 145.019 11.8672V19H141.986ZM159.988 4.4368C160.73 4.4368 161.386 4.4976 161.956 4.6192C162.525 4.7344 163.034 4.888 163.482 5.08L162.647 7.0576C162.295 6.9232 161.933 6.8272 161.562 6.7696C161.191 6.7056 160.823 6.6736 160.458 6.6736C159.857 6.6736 159.425 6.7824 159.162 7C158.906 7.2176 158.778 7.5792 158.778 8.0848V9.448H162.1L161.764 11.5504H158.778V19H155.764V11.5504H153.623V9.448H155.764V7.9696C155.764 7.2976 155.924 6.696 156.244 6.1648C156.564 5.6336 157.037 5.2144 157.665 4.9072C158.292 4.5936 159.066 4.4368 159.988 4.4368Z" fill="white"/>
</svg>
