<svg width="55" height="54" viewBox="0 0 55 54" fill="none" xmlns="http://www.w3.org/2000/svg">
<g filter="url(#filter0_d_2197_402)">
<path d="M2.5 12C2.5 5.37258 7.87258 0 14.5 0H40.5C47.1274 0 52.5 5.37258 52.5 12V38C52.5 44.6274 47.1274 50 40.5 50H14.5C7.87258 50 2.5 44.6274 2.5 38V12Z" fill="white" fill-opacity="0.1" shape-rendering="crispEdges"/>
<path d="M14.5 0.5H40.5C46.8513 0.5 52 5.64873 52 12V38C52 44.3513 46.8513 49.5 40.5 49.5H14.5C8.14873 49.5 3 44.3513 3 38V12C3 5.64873 8.14873 0.5 14.5 0.5Z" stroke="#4B4869" shape-rendering="crispEdges"/>
<path fill-rule="evenodd" clip-rule="evenodd" d="M34.3943 21.2521C34.276 21.2375 34.1818 21.1452 34.1653 21.0273C33.7972 18.3929 31.6543 15.1025 27.5015 15.1025C23.0372 15.1025 21.2015 18.7395 20.8455 21.0307C20.8274 21.147 20.7336 21.2373 20.6168 21.2516C17.668 21.6128 15.6715 23.8726 15.6715 26.98C15.6715 29.245 17.0065 31.3125 19.0953 32.2575C20.099 32.6638 20.9703 32.725 21.4003 32.725H23.9285C24.1767 32.725 24.3778 32.5239 24.3778 32.2758C24.3778 32.0084 24.1448 31.803 23.8778 31.7905C23.1324 31.7559 22.3981 31.4614 21.829 30.8913C20.6078 29.6713 20.6078 27.6925 21.829 26.4725L25.2903 23.0113C25.4365 22.865 25.5965 22.7338 25.769 22.6188C25.8453 22.5688 25.9265 22.5338 26.0053 22.49C26.1053 22.4363 26.2015 22.3763 26.3065 22.3325C26.4065 22.2913 26.5115 22.2675 26.614 22.2363C26.7065 22.2088 26.7953 22.1738 26.8903 22.155C27.0815 22.1163 27.274 22.0988 27.4678 22.0963C27.479 22.0963 27.4903 22.0925 27.5015 22.0925C27.5115 22.0925 27.5203 22.095 27.529 22.0963C27.7253 22.0975 27.9203 22.1163 28.1128 22.155C28.2065 22.1738 28.2928 22.2075 28.384 22.235C28.489 22.2663 28.5953 22.29 28.6965 22.3325C28.7978 22.375 28.8903 22.4313 28.9853 22.4838C29.069 22.5288 29.1553 22.5663 29.2353 22.62C29.389 22.7225 29.5303 22.8413 29.6628 22.9688C29.679 22.9825 29.6965 22.9925 29.7115 23.0075L33.1753 26.4713C34.3965 27.6925 34.3965 29.67 33.1753 30.8913C32.6169 31.4509 31.8907 31.7518 31.1259 31.7883C30.8592 31.801 30.6278 32.0068 30.6278 32.2738C30.6278 32.523 30.8299 32.725 31.0792 32.725H33.5915C34.0265 32.725 34.9053 32.665 35.9353 32.2525C37.9965 31.32 39.329 29.25 39.329 26.98C39.329 23.8763 37.3377 21.6169 34.3943 21.2521Z" fill="#F57463"/>
<path fill-rule="evenodd" clip-rule="evenodd" d="M30.9641 29.6192C31.2041 29.6192 31.4441 29.528 31.6266 29.3442C31.9928 28.978 31.9928 28.3855 31.6266 28.0192L28.1628 24.5555C28.0766 24.468 27.9728 24.4005 27.8578 24.353C27.7428 24.3055 27.6216 24.2805 27.4991 24.2805C27.4941 24.2805 27.4903 24.283 27.4853 24.283C27.3678 24.2855 27.2516 24.3067 27.1416 24.353C27.0266 24.4005 26.9216 24.4692 26.8353 24.5567L23.3728 28.0192C23.0066 28.3855 23.0066 28.978 23.3728 29.3442C23.7391 29.7105 24.3328 29.7105 24.6991 29.3442L26.5628 27.4817V33.9605C26.5628 34.4792 26.9828 34.898 27.5003 34.898C28.0178 34.898 28.4378 34.478 28.4378 33.9605V27.4817L30.3016 29.3442C30.4841 29.528 30.7241 29.6192 30.9641 29.6192Z" fill="#F57463"/>
</g>
<defs>
<filter id="filter0_d_2197_402" x="-21.5" y="-24" width="98" height="98" filterUnits="userSpaceOnUse" color-interpolation-filters="sRGB">
<feFlood flood-opacity="0" result="BackgroundImageFix"/>
<feColorMatrix in="SourceAlpha" type="matrix" values="0 0 0 0 0 0 0 0 0 0 0 0 0 0 0 0 0 0 127 0" result="hardAlpha"/>
<feMorphology radius="2" operator="erode" in="SourceAlpha" result="effect1_dropShadow_2197_402"/>
<feOffset dy="2"/>
<feGaussianBlur stdDeviation="2"/>
<feComposite in2="hardAlpha" operator="out"/>
<feColorMatrix type="matrix" values="0 0 0 0 0.0156863 0 0 0 0 0.00392157 0 0 0 0 0.156863 0 0 0 1 0"/>
<feBlend mode="normal" in2="BackgroundImageFix" result="effect1_dropShadow_2197_402"/>
<feBlend mode="normal" in="SourceGraphic" in2="effect1_dropShadow_2197_402" result="shape"/>
</filter>
</defs>
</svg>
